<?xml version="1.0" encoding="UTF-8"?>
<svg width="12px" height="12px" viewBox="0 0 12 12" version="1.1" xmlns="http://www.w3.org/2000/svg" xmlns:xlink="http://www.w3.org/1999/xlink">
    <!-- Generator: Sketch 52.1 (67048) - http://www.bohemiancoding.com/sketch -->
    <title>list/icon/card number</title>
    <desc>Created with Sketch.</desc>
    <g id="list/icon/card-number" stroke="none" stroke-width="1" fill="none" fill-rule="evenodd">
        <path d="M1,1 L11,1 C11.5522847,1 12,1.44771525 12,2 L12,10 C12,10.5522847 11.5522847,11 11,11 L1,11 C0.44771525,11 6.76353751e-17,10.5522847 0,10 L0,2 C-6.76353751e-17,1.44771525 0.44771525,1 1,1 Z M3.5,6 C4.32842712,6 5,5.32842712 5,4.5 C5,3.67157288 4.32842712,3 3.5,3 C2.67157288,3 2,3.67157288 2,4.5 C2,5.32842712 2.67157288,6 3.5,6 Z M3.5,6 C2.11928813,6 1,7.11928813 1,8.5 L1,9 L6,9 L6,8.5 C6,7.11928813 4.88071187,6 3.5,6 Z M7.5,4 C7.22385763,4 7,4.22385763 7,4.5 C7,4.77614237 7.22385763,5 7.5,5 L10.5,5 C10.7761424,5 11,4.77614237 11,4.5 C11,4.22385763 10.7761424,4 10.5,4 L7.5,4 Z M7.5,6 C7.22385763,6 7,6.22385763 7,6.5 C7,6.77614237 7.22385763,7 7.5,7 L10.5,7 C10.7761424,7 11,6.77614237 11,6.5 C11,6.22385763 10.7761424,6 10.5,6 L7.5,6 Z" id="card" fill="#888888"></path>
    </g>
</svg>