<?xml version="1.0" standalone="no"?><!DOCTYPE svg PUBLIC "-//W3C//DTD SVG 1.1//EN" "http://www.w3.org/Graphics/SVG/1.1/DTD/svg11.dtd"><svg t="1554622551916" class="icon" style="" viewBox="0 0 1025 1024" version="1.1" xmlns="http://www.w3.org/2000/svg" p-id="8182" xmlns:xlink="http://www.w3.org/1999/xlink" width="48.046875" height="48"><defs><style type="text/css"></style></defs><path d="M731.574857 585.142857l174.299429 0q-2.852571 3.437714-5.705143 5.997714t-5.12 4.315429l-1.682286 2.267429-355.986286 342.820571q-10.313143 10.313143-25.161143 10.313143t-25.161143-10.313143l-356.571429-343.990857q-2.852571-1.170286-11.995429-11.410286l210.870857 0q12.580571 0 22.601143-7.68t12.873143-19.748571l40.009143-160.548571 108.544 381.147429q3.437714 11.410286 13.165714 18.870857t22.308571 7.460571q11.995429 0 21.723429-7.460571t13.165714-18.870857l83.456-277.138286 32.036571 64q10.313143 19.968 32.548571 19.968zM1024.146286 340.553143q0 82.870857-58.88 171.446857l-210.870857 0-63.414857-126.317714q-4.534857-9.728-14.555429-15.433143t-20.845714-4.534857q-25.746286 2.852571-32.036571 26.258286l-73.728 245.686857-111.981714-391.972571q-3.437714-11.410286-13.458286-18.870857t-22.601143-7.460571-22.308571 7.68-12.580571 19.748571l-66.267429 265.142857-241.737143 0q-58.88-88.576-58.88-171.446857 0-125.732571 72.557714-196.534857t200.557714-70.875429q35.401143 0 72.265143 12.288t68.534857 33.133714 54.564571 39.131429 43.446857 38.838857q20.553143-20.553143 43.446857-38.838857t54.564571-39.131429 68.534857-33.133714 72.265143-12.288q128 0 200.557714 70.875429t72.557714 196.534857z" p-id="8183" fill="#ff7e59"></path></svg>