<?xml version="1.0" encoding="UTF-8" standalone="no"?>
<svg width="22px" height="23px" viewBox="0 0 22 23" version="1.1" xmlns="http://www.w3.org/2000/svg" xmlns:xlink="http://www.w3.org/1999/xlink">
    <!-- Generator: Sketch 48.1 (47250) - http://www.bohemiancoding.com/sketch -->
    <title>search</title>
    <desc>Created with Sketch.</desc>
    <defs></defs>
    <g id="挂号-2选择科室医生" stroke="none" stroke-width="1" fill="none" fill-rule="evenodd" transform="translate(-19.000000, -77.000000)">
        <g id="Group-4" transform="translate(0.000000, 63.000000)" fill="#666666" fill-rule="nonzero">
            <g id="Group-2" transform="translate(15.000000, 10.000000)">
                <path d="M17.4022371,21.8519462 C17.479185,22.0004812 17.5226538,22.1691587 17.5226538,22.3479888 L17.5226538,28.5873528 C17.5226538,29.1837595 17.0391706,29.6672427 16.4427638,29.6672427 C15.8463571,29.6672427 15.3628739,29.1837595 15.3628739,28.5873528 L15.3628739,22.6214865 C10.4076914,22.1245518 6.53908066,17.9420158 6.53908066,12.8559173 C6.53908066,7.43524274 10.9334057,3.04091775 16.3540802,3.04091775 C21.7747548,3.04091775 26.1690798,7.43524274 26.1690798,12.8559173 C26.1690798,16.0628583 24.6187667,19.0117785 22.060161,20.8426631 C21.5751418,21.1897327 20.9006005,21.0779024 20.5535308,20.5928832 C20.2064612,20.1078639 20.3182915,19.4333226 20.8033108,19.086253 C22.8010982,17.6566782 24.0093,15.3585033 24.0093,12.8559173 C24.0093,8.62805622 20.5819413,5.2006976 16.3540802,5.2006976 C12.1262191,5.2006976 8.69886052,8.62805622 8.69886052,12.8559173 C8.69886052,17.0837784 12.1262191,20.511137 16.3540802,20.511137 C16.950487,20.511137 17.4339702,20.9946202 17.4339702,21.591027 C17.4339702,21.6809936 17.4229685,21.7683907 17.4022371,21.8519462 Z" id="search" transform="translate(16.354080, 16.354080) scale(-1, 1) rotate(45.000000) translate(-16.354080, -16.354080) "></path>
            </g>
        </g>
    </g>
</svg>