<?xml version="1.0" encoding="UTF-8" standalone="no"?>
<svg width="169px" height="101px" viewBox="0 0 169 101" version="1.1" xmlns="http://www.w3.org/2000/svg" xmlns:xlink="http://www.w3.org/1999/xlink">
    <!-- Generator: Sketch 48.1 (47250) - http://www.bohemiancoding.com/sketch -->
    <title>Group 2</title>
    <desc>Created with Sketch.</desc>
    <defs></defs>
    <g id="无数据" stroke="none" stroke-width="1" fill="none" fill-rule="evenodd" transform="translate(-103.000000, -230.000000)">
        <g id="Group-2" transform="translate(105.000000, 232.000000)">
            <path d="M0,97 L18.1489204,97 M29.9632945,97 L144.974914,97 M157.206191,97 L165,97" id="Line" stroke="#A5A5A5" stroke-width="4" stroke-linecap="round"></path>
            <path d="M135.103093,40.5399102 L135.103093,66.1445903 M135.103093,83.2492692 L135.103093,96 L49,96 C49,65.7964413 49,55.3353177 49,44.616629 M49,44.616629 C49,42.4415839 49,21.3500903 49,17 C49,12.581722 52.2124723,9 56.1752577,9 L127.927835,9 C131.89062,9 135.103093,12.581722 135.103093,17 L135.103093,83.2492692" id="Rectangle-24" fill="#A5A5A5" opacity="0.200000003"></path>
            <path d="M126,31.5399102 L126,57.1445903 M126,74.2492692 L126,97 L40,97 C40,66.7964413 40,46.3353177 40,35.616629 M40,17.7877031 C40,15.6126579 40,12.3500903 40,8 C40,3.581722 43.208626,0 47.1666667,0 L118.833333,0 C122.791374,0 126,3.581722 126,8 L126,23.8461996" id="Rectangle-24" stroke="#A5A5A5" stroke-width="4" stroke-linecap="round"></path>
            <rect id="Rectangle" fill="#A5A5A5" x="58" y="21" width="50" height="4" rx="2"></rect>
            <rect id="Rectangle-Copy-2" fill="#A5A5A5" x="58" y="71" width="50" height="4" rx="2"></rect>
            <rect id="Rectangle-Copy" fill="#A5A5A5" x="68" y="46" width="30" height="4" rx="2"></rect>
            <g id="Group" transform="translate(146.000000, 0.000000)" stroke="#A5A5A5" stroke-linecap="round" stroke-width="4">
                <path d="M0.5,4.5 L9.5,4.5" id="Line-2"></path>
                <path d="M5,0 L5,9" id="Line-2"></path>
            </g>
            <g id="Group-Copy" transform="translate(12.000000, 48.000000)" stroke="#A5A5A5" stroke-linecap="round" stroke-width="4">
                <path d="M0.5,4.5 L9.5,4.5" id="Line-2"></path>
                <path d="M5,0 L5,9" id="Line-2"></path>
            </g>
        </g>
    </g>
</svg>