<?xml version="1.0" encoding="UTF-8"?>
<svg width="12px" height="12px" viewBox="0 0 12 12" version="1.1" xmlns="http://www.w3.org/2000/svg" xmlns:xlink="http://www.w3.org/1999/xlink">
    <!-- Generator: Sketch 52.1 (67048) - http://www.bohemiancoding.com/sketch -->
    <title>list/icon/number</title>
    <desc>Created with Sketch.</desc>
    <g id="list/icon/number" stroke="none" stroke-width="1" fill="none" fill-rule="evenodd">
        <path d="M1.84155625,5.91709311 C1.32532787,5.40186504 1,4.64992375 1,3.8125 C1,2.25919914 2.11928813,1 3.5,1 C4.88071187,1 6,2.25919914 6,3.8125 C6,4.64992375 5.67467213,5.40186504 5.15844375,5.91709311 C6.25487948,6.50815965 7,7.66706372 7,9 L7,10 L0,10 L0,9 C-1.63237615e-16,7.66706372 0.745120515,6.50815965 1.84155625,5.91709311 Z M7.5,4.3125 C7.22385763,4.3125 7,4.08864237 7,3.8125 C7,3.53635763 7.22385763,3.3125 7.5,3.3125 L11.5,3.3125 C11.7761424,3.3125 12,3.53635763 12,3.8125 C12,4.08864237 11.7761424,4.3125 11.5,4.3125 L7.5,4.3125 Z M7.5,6.5625 C7.22385763,6.5625 7,6.33864237 7,6.0625 C7,5.78635763 7.22385763,5.5625 7.5,5.5625 L11.5,5.5625 C11.7761424,5.5625 12,5.78635763 12,6.0625 C12,6.33864237 11.7761424,6.5625 11.5,6.5625 L7.5,6.5625 Z M8.5,8.8125 C8.22385763,8.8125 8,8.58864237 8,8.3125 C8,8.03635763 8.22385763,7.8125 8.5,7.8125 L11.5,7.8125 C11.7761424,7.8125 12,8.03635763 12,8.3125 C12,8.58864237 11.7761424,8.8125 11.5,8.8125 L8.5,8.8125 Z" id="Combined-Shape" fill="#888888"></path>
    </g>
</svg>